<svg width="64" height="64" viewBox="0 0 64 64" fill="none" xmlns="http://www.w3.org/2000/svg">
<rect width="64" height="64" rx="8" fill="#121212"/>
<path d="M12.8861 41V23.48H15.8861V38.216H23.3261V41H12.8861ZM32.1007 41.24C30.9807 41.24 29.9967 41.032 29.1487 40.616C28.3167 40.184 27.6687 39.584 27.2047 38.816C26.7567 38.032 26.5327 37.112 26.5327 36.056V28.424C26.5327 27.352 26.7567 26.432 27.2047 25.664C27.6687 24.896 28.3167 24.304 29.1487 23.888C29.9967 23.456 30.9807 23.24 32.1007 23.24C33.2367 23.24 34.2127 23.456 35.0287 23.888C35.8607 24.304 36.5087 24.896 36.9727 25.664C37.4367 26.432 37.6687 27.352 37.6687 28.424H34.6447C34.6447 27.592 34.4207 26.96 33.9727 26.528C33.5407 26.096 32.9167 25.88 32.1007 25.88C31.2847 25.88 30.6527 26.096 30.2047 26.528C29.7567 26.96 29.5327 27.584 29.5327 28.4V36.056C29.5327 36.872 29.7567 37.504 30.2047 37.952C30.6527 38.384 31.2847 38.6 32.1007 38.6C32.9167 38.6 33.5407 38.384 33.9727 37.952C34.4207 37.504 34.6447 36.872 34.6447 36.056H37.6687C37.6687 37.096 37.4367 38.008 36.9727 38.792C36.5087 39.576 35.8607 40.184 35.0287 40.616C34.2127 41.032 33.2367 41.24 32.1007 41.24ZM46.4433 41.24C45.2433 41.24 44.2033 41.04 43.3233 40.64C42.4433 40.24 41.7633 39.672 41.2833 38.936C40.8193 38.184 40.5793 37.304 40.5633 36.296H43.5633C43.5633 37.016 43.8193 37.584 44.3313 38C44.8593 38.4 45.5713 38.6 46.4673 38.6C47.3313 38.6 48.0033 38.4 48.4833 38C48.9793 37.6 49.2273 37.048 49.2273 36.344C49.2273 35.752 49.0513 35.24 48.6993 34.808C48.3633 34.36 47.8753 34.056 47.2353 33.896L45.2193 33.344C43.8433 32.992 42.7793 32.36 42.0273 31.448C41.2913 30.536 40.9233 29.432 40.9233 28.136C40.9233 27.144 41.1473 26.28 41.5953 25.544C42.0433 24.808 42.6753 24.24 43.4913 23.84C44.3233 23.44 45.2993 23.24 46.4193 23.24C48.1153 23.24 49.4593 23.68 50.4513 24.56C51.4433 25.424 51.9473 26.592 51.9633 28.064H48.9633C48.9633 27.376 48.7393 26.84 48.2913 26.456C47.8433 26.056 47.2113 25.856 46.3953 25.856C45.6113 25.856 45.0033 26.04 44.5713 26.408C44.1393 26.776 43.9233 27.296 43.9233 27.968C43.9233 28.576 44.0833 29.096 44.4033 29.528C44.7393 29.944 45.2193 30.24 45.8433 30.416L47.9313 30.992C49.3233 31.344 50.3873 31.976 51.1233 32.888C51.8593 33.784 52.2273 34.896 52.2273 36.224C52.2273 37.216 51.9873 38.096 51.5073 38.864C51.0273 39.616 50.3553 40.2 49.4913 40.616C48.6273 41.032 47.6113 41.24 46.4433 41.24Z" fill="#F2F2F2"/>
</svg>
